<svg xmlns="http://www.w3.org/2000/svg" xmlns:xlink="http://www.w3.org/1999/xlink" contentStyleType="text/css" data-diagram-type="TIMING" height="530px" preserveAspectRatio="none" style="width:957px;height:530px;background:#FFFFFF;" version="1.1" viewBox="0 0 957 530" width="957px" zoomAndPan="magnify"><title>Typewriter Initiates Transmission</title><defs/><g><g class="title" data-source-line="2"><text fill="#000000" font-family="sans-serif" font-size="14" font-weight="bold" lengthAdjust="spacing" textLength="235.9691" x="359.1695" y="34.9659">Typewriter Initiates Transmission</text></g><line style="stroke:#333333;stroke-width:0.5;" x1="10" x2="10" y1="50.0679" y2="489.2316"/><line style="stroke:#333333;stroke-width:0.5;" x1="945.3082" x2="945.3082" y1="50.0679" y2="489.2316"/><rect fill="#EEEEEE" height="439.1636" style="stroke:none;stroke-width:1;" width="200" x="140.3082" y="50.0679"/><rect fill="#EEEEEE" height="439.1636" style="stroke:none;stroke-width:1;" width="320" x="340.3082" y="50.0679"/><rect fill="#EEEEEE" height="439.1636" style="stroke:none;stroke-width:1;" width="180" x="660.3082" y="50.0679"/><line style="stroke:none;stroke-width:0.5;stroke-dasharray:3,5;" x1="40.3082" x2="40.3082" y1="50.0679" y2="489.2316"/><line style="stroke:none;stroke-width:0.5;stroke-dasharray:3,5;" x1="140.3082" x2="140.3082" y1="50.0679" y2="489.2316"/><line style="stroke:none;stroke-width:0.5;stroke-dasharray:3,5;" x1="240.3082" x2="240.3082" y1="50.0679" y2="489.2316"/><line style="stroke:none;stroke-width:0.5;stroke-dasharray:3,5;" x1="340.3082" x2="340.3082" y1="50.0679" y2="489.2316"/><line style="stroke:none;stroke-width:0.5;stroke-dasharray:3,5;" x1="440.3082" x2="440.3082" y1="50.0679" y2="489.2316"/><line style="stroke:none;stroke-width:0.5;stroke-dasharray:3,5;" x1="540.3082" x2="540.3082" y1="50.0679" y2="489.2316"/><line style="stroke:none;stroke-width:0.5;stroke-dasharray:3,5;" x1="640.3082" x2="640.3082" y1="50.0679" y2="489.2316"/><line style="stroke:none;stroke-width:0.5;stroke-dasharray:3,5;" x1="740.3082" x2="740.3082" y1="50.0679" y2="489.2316"/><line style="stroke:none;stroke-width:0.5;stroke-dasharray:3,5;" x1="840.3082" x2="840.3082" y1="50.0679" y2="489.2316"/><line style="stroke:none;stroke-width:0.5;stroke-dasharray:3,5;" x1="940.3082" x2="940.3082" y1="50.0679" y2="489.2316"/><line style="stroke:#333333;stroke-width:0.5;" x1="10" x2="945.3082" y1="50.0679" y2="50.0679"/><text fill="#333333" font-family="sans-serif" font-size="14" font-weight="bold" lengthAdjust="spacing" textLength="60.3258" x="15" y="65.0339">KBRQ (T)</text><line style="stroke:#333333;stroke-width:0.5;" x1="10" x2="76.3258" y1="70.1358" y2="70.1358"/><line style="stroke:#333333;stroke-width:0.5;" x1="76.3258" x2="86.3258" y1="70.1358" y2="50.0679"/><text fill="#FFFFFF" font-family="sans-serif" font-size="12" lengthAdjust="spacing" textLength="19.7881" x="15" y="117.136">low</text><text fill="#FFFFFF" font-family="sans-serif" font-size="12" lengthAdjust="spacing" textLength="25.3082" x="15" y="97.136">high</text><line style="stroke:#000000;stroke-width:2;" x1="40.3082" x2="140.3082" y1="111.4799" y2="111.4799"/><line style="stroke:#000000;stroke-width:2;" x1="140.3082" x2="240.3082" y1="91.4799" y2="91.4799"/><line style="stroke:#000000;stroke-width:2;" x1="240.3082" x2="800.3082" y1="111.4799" y2="111.4799"/><line style="stroke:#000000;stroke-width:2;" x1="800.3082" x2="840.3082" y1="91.4799" y2="91.4799"/><line style="stroke:#000000;stroke-width:2;" x1="840.3082" x2="940.3082" y1="111.4799" y2="111.4799"/><line style="stroke:#000000;stroke-width:2;" x1="140.3082" x2="140.3082" y1="91.4799" y2="111.4799"/><line style="stroke:#000000;stroke-width:2;" x1="240.3082" x2="240.3082" y1="91.4799" y2="111.4799"/><line style="stroke:#000000;stroke-width:2;" x1="800.3082" x2="800.3082" y1="91.4799" y2="111.4799"/><line style="stroke:#000000;stroke-width:2;" x1="840.3082" x2="840.3082" y1="91.4799" y2="111.4799"/><line style="stroke:#333333;stroke-width:0.5;" x1="10" x2="945.3082" y1="123.4799" y2="123.4799"/><text fill="#333333" font-family="sans-serif" font-size="14" font-weight="bold" lengthAdjust="spacing" textLength="64.4137" x="15" y="138.4459">READY (I)</text><line style="stroke:#333333;stroke-width:0.5;" x1="10" x2="80.4137" y1="143.5479" y2="143.5479"/><line style="stroke:#333333;stroke-width:0.5;" x1="80.4137" x2="90.4137" y1="143.5479" y2="123.4799"/><text fill="#FFFFFF" font-family="sans-serif" font-size="12" lengthAdjust="spacing" textLength="19.7881" x="15" y="174.2039">low</text><text fill="#FFFFFF" font-family="sans-serif" font-size="12" lengthAdjust="spacing" textLength="25.3082" x="15" y="154.2039">high</text><line style="stroke:#000000;stroke-width:2;" x1="40.3082" x2="240.3082" y1="148.5479" y2="148.5479"/><line style="stroke:#000000;stroke-width:2;" x1="240.3082" x2="800.3082" y1="168.5479" y2="168.5479"/><line style="stroke:#000000;stroke-width:2;" x1="800.3082" x2="940.3082" y1="148.5479" y2="148.5479"/><line style="stroke:#000000;stroke-width:2;" x1="240.3082" x2="240.3082" y1="148.5479" y2="168.5479"/><line style="stroke:#000000;stroke-width:2;" x1="800.3082" x2="800.3082" y1="148.5479" y2="168.5479"/><line style="stroke:#333333;stroke-width:0.5;" x1="10" x2="945.3082" y1="180.5479" y2="180.5479"/><text fill="#333333" font-family="sans-serif" font-size="14" font-weight="bold" lengthAdjust="spacing" textLength="67.8157" x="15" y="195.5138">KBACK (T)</text><line style="stroke:#333333;stroke-width:0.5;" x1="10" x2="83.8157" y1="200.6158" y2="200.6158"/><line style="stroke:#333333;stroke-width:0.5;" x1="83.8157" x2="93.8157" y1="200.6158" y2="180.5479"/><text fill="#FFFFFF" font-family="sans-serif" font-size="12" lengthAdjust="spacing" textLength="19.7881" x="15" y="231.2718">low</text><text fill="#FFFFFF" font-family="sans-serif" font-size="12" lengthAdjust="spacing" textLength="25.3082" x="15" y="211.2718">high</text><line style="stroke:#000000;stroke-width:2;" x1="40.3082" x2="140.3082" y1="225.6158" y2="225.6158"/><line style="stroke:#000000;stroke-width:2;" x1="140.3082" x2="340.3082" y1="205.6158" y2="205.6158"/><line style="stroke:#000000;stroke-width:2;" x1="340.3082" x2="940.3082" y1="225.6158" y2="225.6158"/><line style="stroke:#000000;stroke-width:2;" x1="140.3082" x2="140.3082" y1="205.6158" y2="225.6158"/><line style="stroke:#000000;stroke-width:2;" x1="340.3082" x2="340.3082" y1="205.6158" y2="225.6158"/><line style="stroke:#333333;stroke-width:0.5;" x1="10" x2="945.3082" y1="237.6158" y2="237.6158"/><text fill="#333333" font-family="sans-serif" font-size="14" font-weight="bold" lengthAdjust="spacing" textLength="44.5058" x="15" y="252.5817">SCK (I)</text><line style="stroke:#333333;stroke-width:0.5;" x1="10" x2="60.5058" y1="257.6837" y2="257.6837"/><line style="stroke:#333333;stroke-width:0.5;" x1="60.5058" x2="70.5058" y1="257.6837" y2="237.6158"/><text fill="#FFFFFF" font-family="sans-serif" font-size="12" lengthAdjust="spacing" textLength="19.7881" x="15" y="288.3397">low</text><text fill="#FFFFFF" font-family="sans-serif" font-size="12" lengthAdjust="spacing" textLength="25.3082" x="15" y="268.3397">high</text><line style="stroke:#000000;stroke-width:2;" x1="40.3082" x2="340.3082" y1="262.6837" y2="262.6837"/><line style="stroke:#000000;stroke-width:2;" x1="340.3082" x2="360.3082" y1="282.6837" y2="282.6837"/><line style="stroke:#000000;stroke-width:2;" x1="360.3082" x2="380.3082" y1="262.6837" y2="262.6837"/><line style="stroke:#000000;stroke-width:2;" x1="380.3082" x2="400.3082" y1="282.6837" y2="282.6837"/><line style="stroke:#000000;stroke-width:2;" x1="400.3082" x2="420.3082" y1="262.6837" y2="262.6837"/><line style="stroke:#000000;stroke-width:2;" x1="420.3082" x2="440.3082" y1="282.6837" y2="282.6837"/><line style="stroke:#000000;stroke-width:2;" x1="440.3082" x2="460.3082" y1="262.6837" y2="262.6837"/><line style="stroke:#000000;stroke-width:2;" x1="460.3082" x2="480.3082" y1="282.6837" y2="282.6837"/><line style="stroke:#000000;stroke-width:2;" x1="480.3082" x2="500.3082" y1="262.6837" y2="262.6837"/><line style="stroke:#000000;stroke-width:2;" x1="500.3082" x2="520.3082" y1="282.6837" y2="282.6837"/><line style="stroke:#000000;stroke-width:2;" x1="520.3082" x2="540.3082" y1="262.6837" y2="262.6837"/><line style="stroke:#000000;stroke-width:2;" x1="540.3082" x2="560.3082" y1="282.6837" y2="282.6837"/><line style="stroke:#000000;stroke-width:2;" x1="560.3082" x2="580.3082" y1="262.6837" y2="262.6837"/><line style="stroke:#000000;stroke-width:2;" x1="580.3082" x2="600.3082" y1="282.6837" y2="282.6837"/><line style="stroke:#000000;stroke-width:2;" x1="600.3082" x2="620.3082" y1="262.6837" y2="262.6837"/><line style="stroke:#000000;stroke-width:2;" x1="620.3082" x2="640.3082" y1="282.6837" y2="282.6837"/><line style="stroke:#000000;stroke-width:2;" x1="640.3082" x2="940.3082" y1="262.6837" y2="262.6837"/><line style="stroke:#000000;stroke-width:2;" x1="340.3082" x2="340.3082" y1="262.6837" y2="282.6837"/><line style="stroke:#000000;stroke-width:2;" x1="360.3082" x2="360.3082" y1="262.6837" y2="282.6837"/><line style="stroke:#000000;stroke-width:2;" x1="380.3082" x2="380.3082" y1="262.6837" y2="282.6837"/><line style="stroke:#000000;stroke-width:2;" x1="400.3082" x2="400.3082" y1="262.6837" y2="282.6837"/><line style="stroke:#000000;stroke-width:2;" x1="420.3082" x2="420.3082" y1="262.6837" y2="282.6837"/><line style="stroke:#000000;stroke-width:2;" x1="440.3082" x2="440.3082" y1="262.6837" y2="282.6837"/><line style="stroke:#000000;stroke-width:2;" x1="460.3082" x2="460.3082" y1="262.6837" y2="282.6837"/><line style="stroke:#000000;stroke-width:2;" x1="480.3082" x2="480.3082" y1="262.6837" y2="282.6837"/><line style="stroke:#000000;stroke-width:2;" x1="500.3082" x2="500.3082" y1="262.6837" y2="282.6837"/><line style="stroke:#000000;stroke-width:2;" x1="520.3082" x2="520.3082" y1="262.6837" y2="282.6837"/><line style="stroke:#000000;stroke-width:2;" x1="540.3082" x2="540.3082" y1="262.6837" y2="282.6837"/><line style="stroke:#000000;stroke-width:2;" x1="560.3082" x2="560.3082" y1="262.6837" y2="282.6837"/><line style="stroke:#000000;stroke-width:2;" x1="580.3082" x2="580.3082" y1="262.6837" y2="282.6837"/><line style="stroke:#000000;stroke-width:2;" x1="600.3082" x2="600.3082" y1="262.6837" y2="282.6837"/><line style="stroke:#000000;stroke-width:2;" x1="620.3082" x2="620.3082" y1="262.6837" y2="282.6837"/><line style="stroke:#000000;stroke-width:2;" x1="640.3082" x2="640.3082" y1="262.6837" y2="282.6837"/><line style="stroke:#333333;stroke-width:0.5;" x1="10" x2="945.3082" y1="294.6837" y2="294.6837"/><text fill="#333333" font-family="sans-serif" font-size="14" font-weight="bold" lengthAdjust="spacing" textLength="40.0959" x="15" y="309.6496">SO (T)</text><line style="stroke:#333333;stroke-width:0.5;" x1="10" x2="56.0959" y1="314.7516" y2="314.7516"/><line style="stroke:#333333;stroke-width:0.5;" x1="56.0959" x2="66.0959" y1="314.7516" y2="294.6837"/><text fill="#FFFFFF" font-family="sans-serif" font-size="12" lengthAdjust="spacing" textLength="19.7881" x="15" y="345.4076">low</text><text fill="#FFFFFF" font-family="sans-serif" font-size="12" lengthAdjust="spacing" textLength="25.3082" x="15" y="325.4076">high</text><line style="stroke:#000000;stroke-width:2;" x1="40.3082" x2="140.3082" y1="339.7516" y2="339.7516"/><line style="stroke:#000000;stroke-width:2;" x1="140.3082" x2="340.3082" y1="319.7516" y2="319.7516"/><line style="stroke:#000000;stroke-width:2;" x1="340.3082" x2="380.3082" y1="339.7516" y2="339.7516"/><line style="stroke:#000000;stroke-width:2;" x1="380.3082" x2="420.3082" y1="319.7516" y2="319.7516"/><line style="stroke:#000000;stroke-width:2;" x1="420.3082" x2="460.3082" y1="339.7516" y2="339.7516"/><line style="stroke:#000000;stroke-width:2;" x1="460.3082" x2="500.3082" y1="319.7516" y2="319.7516"/><line style="stroke:#000000;stroke-width:2;" x1="500.3082" x2="540.3082" y1="339.7516" y2="339.7516"/><line style="stroke:#000000;stroke-width:2;" x1="540.3082" x2="580.3082" y1="319.7516" y2="319.7516"/><line style="stroke:#000000;stroke-width:2;" x1="580.3082" x2="620.3082" y1="339.7516" y2="339.7516"/><line style="stroke:#000000;stroke-width:2;" x1="620.3082" x2="800.3082" y1="319.7516" y2="319.7516"/><line style="stroke:#000000;stroke-width:2;" x1="800.3082" x2="940.3082" y1="339.7516" y2="339.7516"/><line style="stroke:#000000;stroke-width:2;" x1="140.3082" x2="140.3082" y1="319.7516" y2="339.7516"/><line style="stroke:#000000;stroke-width:2;" x1="340.3082" x2="340.3082" y1="319.7516" y2="339.7516"/><line style="stroke:#000000;stroke-width:2;" x1="380.3082" x2="380.3082" y1="319.7516" y2="339.7516"/><line style="stroke:#000000;stroke-width:2;" x1="420.3082" x2="420.3082" y1="319.7516" y2="339.7516"/><line style="stroke:#000000;stroke-width:2;" x1="460.3082" x2="460.3082" y1="319.7516" y2="339.7516"/><line style="stroke:#000000;stroke-width:2;" x1="500.3082" x2="500.3082" y1="319.7516" y2="339.7516"/><line style="stroke:#000000;stroke-width:2;" x1="540.3082" x2="540.3082" y1="319.7516" y2="339.7516"/><line style="stroke:#000000;stroke-width:2;" x1="580.3082" x2="580.3082" y1="319.7516" y2="339.7516"/><line style="stroke:#000000;stroke-width:2;" x1="620.3082" x2="620.3082" y1="319.7516" y2="339.7516"/><line style="stroke:#000000;stroke-width:2;" x1="800.3082" x2="800.3082" y1="319.7516" y2="339.7516"/><line style="stroke:#333333;stroke-width:0.5;" x1="10" x2="945.3082" y1="351.7516" y2="351.7516"/><text fill="#333333" font-family="sans-serif" font-size="14" font-weight="bold" lengthAdjust="spacing" textLength="31.7379" x="15" y="366.7176">SI (I)</text><line style="stroke:#333333;stroke-width:0.5;" x1="10" x2="47.7379" y1="371.8195" y2="371.8195"/><line style="stroke:#333333;stroke-width:0.5;" x1="47.7379" x2="57.7379" y1="371.8195" y2="351.7516"/><text fill="#FFFFFF" font-family="sans-serif" font-size="12" lengthAdjust="spacing" textLength="19.7881" x="15" y="402.4756">low</text><text fill="#FFFFFF" font-family="sans-serif" font-size="12" lengthAdjust="spacing" textLength="25.3082" x="15" y="382.4756">high</text><line style="stroke:#000000;stroke-width:2;" x1="40.3082" x2="640.3082" y1="376.8195" y2="376.8195"/><line style="stroke:#000000;stroke-width:2;" x1="640.3082" x2="940.3082" y1="376.8195" y2="376.8195"/><line style="stroke:#000000;stroke-width:2;" x1="640.3082" x2="640.3082" y1="376.8195" y2="376.8195"/><line style="stroke:#333333;stroke-width:0.5;" x1="10" x2="945.3082" y1="408.8195" y2="408.8195"/><text fill="#333333" font-family="sans-serif" font-size="14" font-weight="bold" lengthAdjust="spacing" textLength="104.0056" x="15" y="423.7855">Protocol Phase</text><line style="stroke:#333333;stroke-width:0.5;" x1="10" x2="120.0056" y1="428.8874" y2="428.8874"/><line style="stroke:#333333;stroke-width:0.5;" x1="120.0056" x2="130.0056" y1="428.8874" y2="408.8195"/><line style="stroke:#000000;stroke-width:1.5;" x1="40.3082" x2="140.3082" y1="467.2316" y2="467.2316"/><polygon fill="#FFFFFF" points="152.3082,455.2316,228.3082,455.2316,240.3082,467.2316,228.3082,479.2316,152.3082,479.2316,140.3082,467.2316" style="stroke:#000000;stroke-width:1.5;"/><polygon fill="#FFFFFF" points="252.3082,455.2316,328.3082,455.2316,340.3082,467.2316,328.3082,479.2316,252.3082,479.2316,240.3082,467.2316" style="stroke:#000000;stroke-width:1.5;"/><polygon fill="#FFFFFF" points="352.3082,455.2316,648.3082,455.2316,660.3082,467.2316,648.3082,479.2316,352.3082,479.2316,340.3082,467.2316" style="stroke:#000000;stroke-width:1.5;"/><polygon fill="#FFFFFF" points="672.3082,455.2316,788.3082,455.2316,800.3082,467.2316,788.3082,479.2316,672.3082,479.2316,660.3082,467.2316" style="stroke:#000000;stroke-width:1.5;"/><polygon fill="#FFFFFF" points="812.3082,455.2316,828.3082,455.2316,840.3082,467.2316,828.3082,479.2316,812.3082,479.2316,800.3082,467.2316" style="stroke:#000000;stroke-width:1.5;"/><line style="stroke:#000000;stroke-width:1.5;" x1="840.3082" x2="940.3082" y1="467.2316" y2="467.2316"/><text fill="#333333" font-family="sans-serif" font-size="12" font-weight="bold" lengthAdjust="spacing" textLength="23.8562" x="178.3801" y="471.8876">SYN</text><text fill="#333333" font-family="sans-serif" font-size="12" font-weight="bold" lengthAdjust="spacing" textLength="23.8922" x="278.3621" y="471.8876">ACK</text><text fill="#333333" font-family="sans-serif" font-size="12" font-weight="bold" lengthAdjust="spacing" textLength="60.7444" x="469.936" y="471.8876">TRANSFER</text><text fill="#333333" font-family="sans-serif" font-size="12" font-weight="bold" lengthAdjust="spacing" textLength="31.2362" x="714.6901" y="471.8876">BUSY</text><text fill="#333333" font-family="sans-serif" font-size="12" font-weight="bold" lengthAdjust="spacing" textLength="21.0121" x="809.8021" y="471.8876">FIN</text><line style="stroke:#000000;stroke-width:1;" x1="141.3082" x2="239.3082" y1="444.5595" y2="444.5595"/><polygon fill="#000000" points="149.3082,448.5595,149.3082,440.5595,141.3082,444.5595" style="stroke:#000000;stroke-width:1;"/><polygon fill="#000000" points="231.3082,448.5595,231.3082,440.5595,239.3082,444.5595" style="stroke:#000000;stroke-width:1;"/><text fill="#000000" font-family="sans-serif" font-size="12" lengthAdjust="spacing" textLength="40.6203" x="169.998" y="436.0435">~100us</text><line style="stroke:#000000;stroke-width:1;" x1="241.3082" x2="339.3082" y1="444.5595" y2="444.5595"/><polygon fill="#000000" points="249.3082,448.5595,249.3082,440.5595,241.3082,444.5595" style="stroke:#000000;stroke-width:1;"/><polygon fill="#000000" points="331.3082,448.5595,331.3082,440.5595,339.3082,444.5595" style="stroke:#000000;stroke-width:1;"/><text fill="#000000" font-family="sans-serif" font-size="12" lengthAdjust="spacing" textLength="40.6203" x="269.998" y="436.0435">~200us</text><line style="stroke:#000000;stroke-width:1;" x1="341.3082" x2="659.3082" y1="444.5595" y2="444.5595"/><polygon fill="#000000" points="349.3082,448.5595,349.3082,440.5595,341.3082,444.5595" style="stroke:#000000;stroke-width:1;"/><polygon fill="#000000" points="651.3082,448.5595,651.3082,440.5595,659.3082,444.5595" style="stroke:#000000;stroke-width:1;"/><text fill="#000000" font-family="sans-serif" font-size="12" lengthAdjust="spacing" textLength="40.6203" x="479.998" y="436.0435">~100us</text><line style="stroke:#000000;stroke-width:1;" x1="661.3082" x2="799.3082" y1="444.5595" y2="444.5595"/><polygon fill="#000000" points="669.3082,448.5595,669.3082,440.5595,661.3082,444.5595" style="stroke:#000000;stroke-width:1;"/><polygon fill="#000000" points="791.3082,448.5595,791.3082,440.5595,799.3082,444.5595" style="stroke:#000000;stroke-width:1;"/><text fill="#000000" font-family="sans-serif" font-size="12" lengthAdjust="spacing" textLength="40.6203" x="709.998" y="436.0435">~240us</text><line style="stroke:#000000;stroke-width:1;" x1="801.3082" x2="839.3082" y1="444.5595" y2="444.5595"/><polygon fill="#000000" points="809.3082,448.5595,809.3082,440.5595,801.3082,444.5595" style="stroke:#000000;stroke-width:1;"/><polygon fill="#000000" points="831.3082,448.5595,831.3082,440.5595,839.3082,444.5595" style="stroke:#000000;stroke-width:1;"/><text fill="#000000" font-family="sans-serif" font-size="12" lengthAdjust="spacing" textLength="33.7562" x="803.4301" y="436.0435">~10us</text><line style="stroke:#696969;stroke-width:2;stroke-dasharray:4,4;" x1="140.3082" x2="140.3082" y1="50.0679" y2="489.2316"/><line style="stroke:#696969;stroke-width:2;stroke-dasharray:4,4;" x1="340.3082" x2="340.3082" y1="50.0679" y2="489.2316"/><text fill="#000000" font-family="sans-serif" font-size="12" lengthAdjust="spacing" textLength="64.3085" x="143.3082" y="64.896">Connection</text><line style="stroke:#696969;stroke-width:2;stroke-dasharray:4,4;" x1="340.3082" x2="340.3082" y1="50.0679" y2="489.2316"/><line style="stroke:#696969;stroke-width:2;stroke-dasharray:4,4;" x1="660.3082" x2="660.3082" y1="50.0679" y2="489.2316"/><text fill="#000000" font-family="sans-serif" font-size="12" lengthAdjust="spacing" textLength="173.5812" x="343.3082" y="64.896">Serial data bits ASCII "U" (MSB)</text><line style="stroke:#696969;stroke-width:2;stroke-dasharray:4,4;" x1="660.3082" x2="660.3082" y1="50.0679" y2="489.2316"/><line style="stroke:#696969;stroke-width:2;stroke-dasharray:4,4;" x1="840.3082" x2="840.3082" y1="50.0679" y2="489.2316"/><text fill="#000000" font-family="sans-serif" font-size="12" lengthAdjust="spacing" textLength="68.9645" x="663.3082" y="64.896">Termination</text><g class="footer" data-source-line="3"><text fill="#888888" font-family="sans-serif" font-size="10" lengthAdjust="spacing" textLength="127.9099" x="413.1991" y="514.9034">Typewriter (T) / Interface (I)</text></g><!--SRC=[dLLjJzim4FxkNt4AcdWH7MsXK1X210fR1AEC54ryDAdRU4lZo7RNTeZzzfsTj773meU1Ajdtt3r-xdo-n7p8GFC9Qz0vLqHpdJ0OB38sarmp2K7ADQUQAHX8cge9LugBb8o4CAZZk3NOXZrqn_M8HWosWcr2JfLU9EmCQISy7VSu7KiwWHS2y57nSKeJkmQuvIcx58cGy9pGw2VQNl4NYJJYYjNw05pWOYp5D1tco2n6BHQv5gaE-My6hNR1jhS3VfOb2z02_DjRaE9vgZJaEjG9V3UneDbSGun5KQ1Z1WbzPec2dJqaA0B-LyswpIYYKehPF_Ych2o0qfBoLFiLrq7CevyfKmfQjNBAGzsYchiUIpvySwuszvjHoL9jNL_9wLvnVKH55DkY0nJFQpOXutEi2Y6Rq6CZ981xAZMFU4PJhQ01Vf8OxR-Or6newfsNZXGLz6uk7hwPXl4CeTcia8Shl_TaUiT2TkT4-PStJfZPhS3GG4KOhajxVnKHzajhK3e7PDbdthqKMaGYWVkOAcPXkmAJQgFHW53ZKyYJncU1jsEiXDXyq14RPnpl9c96yZpMJBdWDLFunj2lx8Fr_ViopfiabyiLl3HUSrcuBWNndAlGKa1XlhG02bXQWvMHd7TAOYzyklDMrEji3aKHs78aUUZbbKBocfGAqTazPl3WtuNNLm_UKbzPmwN2lXDwk9O66exSk7LDtQhlyLlVdBRThBYsMxMqxNRLTx-Mzg3gsgcdhMRMFggbhIRMFgwbtM-IzOjthtk_vLp4nMFuv1bZrp5U1tVUcvvoMiBf8qVWmJiDYgtj3t_WwyI9eJJE4pkfpF3em1JRNEMXvnquRPm1DXQSm1ySHjCbW9OSwHYaxI95p7wh6eEM7EdQc0C7wUR8GN7EL2qVtnVCBy6VnY-QVNURy5co1SouZetd1n0PZRXUm1RDCYdc4BCvR5mTcd_0GJjL9f8cMKo1Zq1DiqoOGRbhyaw7L0x1yiFOq69v51qnfRT9l3mPIu9rmRGshkpVfmI7y4cFJwoG4xWKQSeYCncSc9ODmenhWa8cENwGXrHJUCPwWnzU1W5uZnviVGqltEEH1AcmD3LK0oRnUq-j0F8N]--></g></svg>